<svg version="1.1" id="Layer_1" xmlns="http://www.w3.org/2000/svg" xmlns:xlink="http://www.w3.org/1999/xlink" x="0px" y="0px"
	 width="100%" viewBox="0 0 225 225" enable-background="new 0 0 225 225" xml:space="preserve">
<path fill="#FEFEFE" opacity="1.000000" stroke="none" 
	d="
M124.000000,226.000000 
	C84.000000,226.000000 44.499786,225.944092 5.000392,226.098526 
	C1.574284,226.111908 0.897812,225.424347 0.903703,221.999832 
	C1.030420,148.333389 1.000000,74.666679 1.000000,1.000010 
	C74.666656,1.000000 148.333359,1.030417 221.999802,0.903709 
	C225.424240,0.897818 226.102371,1.575541 226.096344,5.000135 
	C225.969025,77.333244 225.969055,149.666687 226.096359,221.999786 
	C226.102386,225.424210 225.426620,226.117035 221.999542,226.099426 
	C189.500381,225.932556 157.000015,226.000000 124.000000,226.000000 
z"/>
<path fill="#ED622C" opacity="1.000000" stroke="none" 
	d="
M72.329224,128.290939 
	C76.674950,126.235420 81.331299,127.424133 85.879333,127.366669 
	C89.130005,127.325600 90.084839,126.445198 90.061691,123.161339 
	C89.918442,102.837280 89.878700,82.510933 90.020821,62.186852 
	C90.169022,40.992577 103.074074,23.515253 122.746468,17.452963 
	C149.106705,9.329730 177.180023,26.314228 181.092041,53.651920 
	C183.402267,69.796150 183.375366,86.329315 181.120621,102.460083 
	C178.389740,121.997238 166.152328,134.309006 147.215240,139.459885 
	C143.268158,140.533493 142.826447,142.277466 142.844086,145.601013 
	C142.944931,164.592743 142.806244,183.586029 142.970627,202.576874 
	C143.000732,206.055649 142.082275,207.108154 138.541504,207.057312 
	C129.134888,206.922272 129.132629,207.095428 129.132706,197.633102 
	C129.132812,180.140213 129.059479,162.646744 129.199722,145.154968 
	C129.225082,141.990738 128.516327,140.770813 125.113914,140.944641 
	C119.464584,141.233276 113.777031,141.239197 108.129486,140.928909 
	C104.524208,140.730835 103.732285,142.001389 103.760918,145.410843 
	C103.919044,164.235184 103.703079,183.063217 103.939217,201.885925 
	C103.992378,206.123016 102.718033,207.199371 98.641136,207.062103 
	C89.996094,206.771027 89.989578,206.985062 89.989662,198.482239 
	C89.989845,180.989349 89.830231,163.493988 90.102119,146.005325 
	C90.169029,141.701645 88.854904,140.891449 84.837532,140.861832 
	C80.572746,140.830399 76.046234,142.525116 72.010033,139.425613 
	C72.179489,138.826019 72.298065,138.662857 72.239166,138.254654 
	C72.002838,135.627243 71.943970,133.244858 71.973763,130.423676 
	C72.461815,129.570282 72.525520,129.066818 72.329224,128.290939 
z"/>
<path fill="#ED632E" opacity="1.000000" stroke="none" 
	d="
M50.976120,204.737396 
	C50.965172,157.126129 50.908051,109.990227 50.989780,62.854576 
	C51.030190,39.551735 65.270561,21.405441 87.330826,16.584848 
	C93.171906,15.308460 99.207146,14.814404 105.729919,16.473070 
	C101.208374,20.478918 96.609818,23.990080 93.230080,28.709763 
	C92.753418,29.375412 91.476036,29.543093 90.529396,29.785583 
	C73.888496,34.048370 64.761368,45.782063 64.747658,63.092072 
	C64.712036,108.062386 64.706490,153.032730 64.690399,198.003052 
	C64.687149,207.071884 64.688698,207.131119 55.405739,206.911438 
	C53.870831,206.875107 51.516052,208.170349 50.976120,204.737396 
z"/>
<path fill="#E7561E" opacity="1.000000" stroke="none" 
	d="
M72.072205,128.360016 
	C72.842735,128.520157 73.076866,129.050919 72.274582,129.851898 
	C72.019783,129.544678 71.977150,129.104477 72.072205,128.360016 
z"/>
<path fill="#E7561E" opacity="1.000000" stroke="none" 
	d="
M72.002426,138.254456 
	C72.166420,138.276459 72.271133,138.543274 72.218384,138.899628 
	C72.021667,138.825882 71.982414,138.662582 72.002426,138.254456 
z"/>
<path fill="#FEFDFC" opacity="1.000000" stroke="none" 
	d="
M137.603821,28.737667 
	C157.762589,31.049540 169.496750,47.002258 168.350403,64.456192 
	C167.664139,74.904839 168.284470,85.435738 168.207870,95.928871 
	C168.111847,109.081886 159.547913,120.844086 147.277405,125.392586 
	C143.516129,126.786835 142.801987,125.781258 142.826065,122.106903 
	C142.958176,101.953232 142.909500,81.798233 142.883575,61.643734 
	C142.873077,53.493172 140.789551,45.886467 136.934372,38.688946 
	C135.578339,36.157253 133.803757,35.500534 131.231018,36.069328 
	C127.945984,36.795605 124.637939,37.627201 122.630775,40.580341 
	C121.907722,41.644161 123.337746,42.643246 123.930870,43.588249 
	C127.469040,49.225506 129.223969,55.287121 129.181229,62.014515 
	C129.054230,82.001678 128.972595,101.992508 129.258514,121.976395 
	C129.324173,126.565918 127.908394,127.626770 123.662506,127.346489 
	C118.189575,126.985222 112.671494,127.141228 107.179695,127.304443 
	C104.524651,127.383354 103.774117,126.420609 103.786880,123.845314 
	C103.894218,102.192604 103.597542,80.533783 104.012192,58.888103 
	C104.303040,43.705208 116.239288,32.015320 133.654022,28.987371 
	C135.057755,28.315559 136.158615,28.558233 137.603821,28.737667 
z"/>
<path fill="#F15C1E" opacity="1.000000" stroke="none" 
	d="
M140.997559,120.644150 
	C140.997559,115.474663 140.997559,110.755447 140.997559,106.036232 
	C141.236649,106.039726 141.475723,106.043228 141.714813,106.046722 
	C141.714813,112.337074 141.714813,118.627426 141.714813,124.917778 
	C141.534714,124.922279 141.354614,124.926773 141.174515,124.931274 
	C141.115524,123.652321 141.056549,122.373375 140.997559,120.644150 
z"/>
<path fill="#F15C1E" opacity="1.000000" stroke="none" 
	d="
M141.978851,68.610847 
	C141.979065,72.616516 141.979065,76.203239 141.979065,79.789963 
	C141.757217,79.789886 141.535385,79.789818 141.313538,79.789742 
	C141.313538,75.251389 141.313538,70.713043 141.313538,66.131508 
	C141.495270,66.210869 141.620026,66.228699 141.681839,66.300621 
	C141.784714,66.420319 141.903320,66.569633 141.916473,66.715401 
	C141.960724,67.205444 141.961334,67.699425 141.978851,68.610847 
z"/>
<path fill="#EF560F" opacity="1.000000" stroke="none" 
	d="
M137.765015,28.663841 
	C136.921265,28.947855 135.870163,28.982363 134.429199,28.951439 
	C135.072495,27.687359 136.286285,27.836107 137.765015,28.663841 
z"/>
<path fill="#F2591F" opacity="1.000000" stroke="none" 
	d="
M130.556580,126.464973 
	C130.589233,126.520782 130.523911,126.409164 130.556580,126.464973 
z"/>
<path fill="#F2591F" opacity="1.000000" stroke="none" 
	d="
M130.556183,205.463898 
	C130.588974,205.519440 130.523407,205.408340 130.556183,205.463898 
z"/>
</svg>